
<svg width="32" height="32" fill="none" xmlns="http://www.w3.org/2000/svg"><path d="M5.90176 27.201 3.65576 2H28.3438l-2.249 25.197L15.9848 30 5.90176 27.201Z" fill="#1572B6"/><path d="m16 27.858 8.17-2.265 1.922-21.53196H16V27.858Z" fill="#33A9DC"/><path d="M16 13.1911h4.09l.282-3.165H16V6.93506h7.75l-.074.829-.759 8.51804H16v-3.091Z" fill="#fff"/><path d="m16.0192 21.218-.014.004-3.442-.93-.22-2.465H9.24023l.433 4.853 6.33097 1.758.015-.004v-3.216Z" fill="#EBEBEB"/><path d="m19.8268 16.151-.372 4.139-3.447.93v3.216l6.336-1.756.047-.522.537-6.007h-3.101Z" fill="#fff"/><path d="M16.0111 6.93506v3.09104H8.54507l-.062-.69504-.141-1.567-.074-.829h7.74303Zm-.011 6.25604v3.091h-3.399l-.062-.695-.14-1.567-.074-.829h3.675Z" fill="#EBEBEB"/></svg>