<svg fill="none" viewBox="0 0 32 32" xmlns="http://www.w3.org/2000/svg"><path d="M15 23h-4a4.0003 4.0003 0 0 0-3.6955 2.4693 4.0004 4.0004 0 0 0 .867 4.3591A4 4 0 0 0 15 27v-4z" stroke="#08D284" stroke-linecap="round" stroke-linejoin="round" stroke-width="2"/><path d="M15 21v-8h-4a3.9998 3.9998 0 0 0-4 4 3.9998 3.9998 0 0 0 4 4h4Z" stroke="#7C4ABA" stroke-linecap="round" stroke-linejoin="round" stroke-width="2"/><path d="M15 11V3h-4a4 4 0 0 0 0 8h4Z" stroke="#F04C1A" stroke-linecap="round" stroke-linejoin="round" stroke-width="2"/><path d="M21 11a3.9997 3.9997 0 0 0 4-4 3.9998 3.9998 0 0 0-4-4h-4v8h4Z" stroke="#ED6A5B" stroke-linecap="round" stroke-linejoin="round" stroke-width="2"/><path d="M25 17a3.9996 3.9996 0 0 1-1.1716 2.8284 3.9996 3.9996 0 0 1-5.6568 0 3.9996 3.9996 0 0 1 0-5.6568 3.9996 3.9996 0 0 1 5.6568 0A3.9996 3.9996 0 0 1 25 17z" stroke="#1B9EFF" stroke-linecap="round" stroke-linejoin="round" stroke-width="2"/></svg>