
<svg viewBox="0 0 32 33" xmlns="http://www.w3.org/2000/svg"><path d="M5.9018 27.701 3.6548 2.5h24.69l-2.25 25.197-10.11 2.803-10.083-2.799z" fill="#E44F26"/><path d="m16 28.358 8.17-2.265 1.922-21.53196H16V28.358Z" fill="#F1662A"/><path d="M16 13.907h-4.09l-.282-3.165H16V7.651H8.25l.074.83.759 8.517H16v-3.091zm0 8.027-.014.004-3.442-.929-.22-2.465H9.221l.433 4.852 6.332 1.758.014-.004v-3.216z" fill="#EBEBEB"/><path d="M15.989 13.907v3.091h3.806l-.358 4.009-3.448.93v3.216l6.337-1.757.046-.522.726-8.137.076-.83h-7.185zm0-6.256v3.091h7.466l.062-.694.141-1.567.074-.83h-7.743z" fill="#fff"/></svg>