<svg width="35" height="32" fill="none" xmlns="http://www.w3.org/2000/svg"><path d="M28.78 10.36c-.38-.13-.75-.25-1.13-.36l.17-.8c.86-4.24.3-7.67-1.6-8.8-1.83-1.07-4.82.05-7.83 2.75-.3.26-.59.54-.87.82l-.58-.55C13.78.54 10.6-.68 8.7.45c-1.83 1.09-2.37 4.3-1.6 8.33.08.4.16.8.26 1.2-.45.13-.88.26-1.3.41C2.37 11.72 0 13.8 0 15.95c0 2.23 2.54 4.46 6.4 5.82l.95.3c-.1.43-.2.85-.28 1.28-.73 3.96-.16 7.1 1.66 8.18 1.88 1.11 5.03-.03 8.1-2.78.25-.23.5-.46.73-.7l.95.89c2.98 2.63 5.91 3.69 7.73 2.6 1.88-1.1 2.49-4.48 1.7-8.59l-.21-.96.65-.2c4-1.37 6.62-3.58 6.62-5.84 0-2.16-2.44-4.25-6.22-5.59Zm-.87 9.96-.6.2a36.58 36.58 0 0 0-1.76-4.56c.7-1.54 1.27-3.05 1.7-4.48.36.1.7.21 1.04.33 3.24 1.15 5.21 2.84 5.21 4.14 0 1.4-2.13 3.2-5.6 4.37Zm-1.44 2.93c.35 1.81.4 3.46.17 4.74-.21 1.15-.63 1.92-1.15 2.23-1.1.66-3.46-.2-6-2.44-.3-.27-.6-.54-.88-.83.98-1.1 1.97-2.4 2.93-3.82 1.7-.16 3.29-.4 4.74-.75l.19.87ZM11.93 30.1c-1.08.39-1.93.4-2.45.1-1.1-.66-1.57-3.18-.94-6.57.07-.4.16-.8.26-1.2 1.43.33 3.02.57 4.71.7.97 1.4 1.99 2.7 3 3.82l-.66.63a12.61 12.61 0 0 1-3.92 2.52Zm-5.05-9.8c-1.7-.6-3.11-1.37-4.08-2.22-.87-.76-1.3-1.52-1.3-2.14 0-1.3 1.9-2.97 5.06-4.1.39-.15.8-.28 1.2-.4.45 1.47 1.02 3 1.71 4.54a38 38 0 0 0-1.72 4.6 18 18 0 0 1-.87-.27ZM8.58 8.5c-.66-3.45-.22-6.05.87-6.7 1.18-.7 3.76.29 6.5 2.78.17.16.35.32.52.5a36.63 36.63 0 0 0-2.98 3.78c-1.65.16-3.22.4-4.67.75-.1-.37-.17-.74-.24-1.11Zm15.1 3.83c-.35-.61-.7-1.2-1.07-1.8 1.12.14 2.19.34 3.2.57-.31 1-.69 2.03-1.13 3.1-.32-.63-.66-1.26-1-1.87Zm-6.16-6.16c.69.77 1.38 1.62 2.06 2.55a42.88 42.88 0 0 0-4.14 0c.68-.92 1.38-1.77 2.08-2.55Zm-6.2 6.17c-.34.6-.67 1.23-.99 1.86-.43-1.07-.8-2.1-1.11-3.11a33 33 0 0 1 3.17-.56c-.37.6-.73 1.2-1.07 1.8Zm1.1 9.17c-1.14-.13-2.22-.31-3.22-.53.3-1.03.69-2.1 1.13-3.18a45.5 45.5 0 0 0 2.1 3.7Zm5.14 4.35c-.71-.78-1.42-1.65-2.1-2.58a51.08 51.08 0 0 0 4.15-.01c-.68.95-1.37 1.82-2.05 2.6Zm7.13-8.11c.47 1.1.87 2.15 1.18 3.16-1.01.24-2.11.43-3.27.57a53.87 53.87 0 0 0 2.1-3.73Zm-2.3 1.14a50.6 50.6 0 0 1-1.68 2.78 43.78 43.78 0 0 1-6.38.01 43.69 43.69 0 0 1-3.2-5.68 43.28 43.28 0 0 1 3.19-5.67 41.26 41.26 0 0 1 6.37 0 46.38 46.38 0 0 1 3.2 5.65c-.47.99-.97 1.96-1.5 2.9Zm3.08-17.14c1.17.69 1.63 3.49.89 7.16l-.16.71c-1.45-.34-3.03-.6-4.68-.76a35.9 35.9 0 0 0-2.96-3.79l.8-.76c2.6-2.3 5-3.22 6.1-2.56Zm-7.97 11a3.17 3.17 0 0 1 3.13 3.21c0 1.78-1.4 3.21-3.13 3.21a3.17 3.17 0 0 1-3.13-3.2c0-1.78 1.4-3.22 3.13-3.22Z" fill="#00D8FF"/></svg>