<svg width="99" height="29" fill="none" xmlns="http://www.w3.org/2000/svg"><path d="M8.5 16.66H3.99v-2.85H8.5c.7 0 1.27-.12 1.7-.34.45-.24.77-.57.97-.98a3.58 3.58 0 0 0 0-2.88c-.2-.46-.52-.82-.96-1.1-.44-.28-1.01-.41-1.71-.41H5.25V23H1.59V5.23H8.5c1.39 0 2.58.25 3.58.75a5.4 5.4 0 0 1 3.08 5.08c0 1.15-.26 2.14-.79 2.98a5.15 5.15 0 0 1-2.3 1.94c-.99.46-2.18.68-3.57.68Zm8.25-.13v-.26c0-.96.14-1.86.41-2.67.28-.82.68-1.53 1.21-2.14a5.42 5.42 0 0 1 1.95-1.4A6.52 6.52 0 0 1 23 9.55c1 0 1.89.17 2.67.51.78.33 1.44.8 1.96 1.4.54.6.95 1.32 1.23 2.14.27.81.41 1.7.41 2.67v.26c0 .96-.14 1.85-.41 2.67a6.23 6.23 0 0 1-1.23 2.14 5.42 5.42 0 0 1-1.95 1.4c-.77.34-1.66.5-2.66.5-1 0-1.9-.16-2.67-.5a5.53 5.53 0 0 1-3.18-3.54 8.33 8.33 0 0 1-.41-2.67Zm3.51-.26v.26c0 .55.05 1.07.15 1.55.1.48.25.9.46 1.27.22.36.5.64.86.84.35.2.78.3 1.28.3.49 0 .9-.1 1.26-.3.35-.2.63-.48.84-.84.21-.37.37-.79.46-1.27.11-.48.16-1 .16-1.55v-.26a6.9 6.9 0 0 0-.16-1.51 4 4 0 0 0-.47-1.27c-.21-.37-.5-.67-.84-.88a2.41 2.41 0 0 0-1.27-.32c-.5 0-.92.11-1.27.32-.35.21-.63.5-.85.88-.2.37-.36.79-.46 1.27-.1.47-.15.98-.15 1.51Zm14.68-3.6V23h-3.52V9.8h3.3l.22 2.87Zm3.98-2.96-.07 3.26a8.52 8.52 0 0 0-1.26-.1c-.5 0-.93.06-1.3.2-.36.12-.66.3-.9.54a2.4 2.4 0 0 0-.54.9c-.11.34-.18.74-.2 1.19l-.7-.22c0-.85.08-1.64.25-2.36.17-.72.42-1.35.75-1.89.33-.53.74-.95 1.22-1.24a3.1 3.1 0 0 1 1.65-.44 3.78 3.78 0 0 1 1.1.16Zm8.74.08v2.5h-7.7v-2.5h7.7Zm-5.79-3.26h3.52v12.49c0 .38.04.68.14.88.1.2.26.35.47.43.2.07.46.1.77.1a6.24 6.24 0 0 0 1.03-.1l.01 2.6a6.62 6.62 0 0 1-4.16-.06 2.8 2.8 0 0 1-1.32-1.25 4.7 4.7 0 0 1-.46-2.25V6.53Z" fill="#fff"/><path d="M54.14 23H50.6V8.62c0-1 .2-1.84.58-2.53.4-.69.96-1.2 1.68-1.56A5.75 5.75 0 0 1 55.43 4a9.88 9.88 0 0 1 1.82.23l-.04 2.65a6.4 6.4 0 0 0-1.09-.11c-.42 0-.78.08-1.08.22-.3.14-.52.35-.67.63-.15.27-.23.61-.23 1.01V23Zm2.63-13.2v2.48h-8.14V9.8h8.14Zm1.29 6.73v-.26c0-.96.13-1.86.41-2.67.28-.82.68-1.53 1.21-2.14a5.41 5.41 0 0 1 1.95-1.4 6.52 6.52 0 0 1 2.66-.51c1 0 1.9.17 2.68.51.78.33 1.43.8 1.96 1.4.54.6.95 1.32 1.22 2.14.28.81.42 1.7.42 2.67v.26c0 .96-.14 1.85-.42 2.67a6.23 6.23 0 0 1-1.22 2.14 5.42 5.42 0 0 1-1.95 1.4c-.77.34-1.66.5-2.66.5-1 0-1.9-.16-2.67-.5a5.53 5.53 0 0 1-3.18-3.54 8.33 8.33 0 0 1-.41-2.67Zm3.51-.26v.26c0 .55.05 1.07.15 1.55.1.48.25.9.46 1.27.22.36.5.64.86.84.35.2.77.3 1.28.3.49 0 .9-.1 1.26-.3.35-.2.63-.48.84-.84.21-.37.36-.79.46-1.27.1-.48.16-1 .16-1.55v-.26a6.9 6.9 0 0 0-.16-1.51 4 4 0 0 0-.47-1.27c-.22-.37-.5-.67-.85-.88a2.41 2.41 0 0 0-1.27-.32c-.5 0-.92.11-1.27.32-.34.21-.62.5-.84.88-.2.37-.36.79-.46 1.27-.1.47-.15.98-.15 1.51ZM76.44 4.25V23h-3.53V4.25h3.53Zm6.62 5.54V23h-3.53V9.8h3.53ZM79.3 6.35c0-.51.18-.94.54-1.27.35-.33.83-.5 1.44-.5.6 0 1.07.17 1.42.5.37.33.55.76.55 1.27s-.18.94-.55 1.27c-.35.33-.83.5-1.42.5-.6 0-1.09-.17-1.44-.5a1.66 1.66 0 0 1-.54-1.27Zm6.09 10.18v-.26c0-.96.14-1.86.42-2.67.27-.82.68-1.53 1.2-2.14a5.41 5.41 0 0 1 1.96-1.4 6.52 6.52 0 0 1 2.66-.51c1 0 1.89.17 2.67.51.78.33 1.44.8 1.97 1.4.53.6.94 1.32 1.22 2.14.27.81.41 1.7.41 2.67v.26c0 .96-.14 1.85-.41 2.67a6.23 6.23 0 0 1-1.22 2.14 5.42 5.42 0 0 1-1.96 1.4c-.77.34-1.66.5-2.66.5-1 0-1.89-.16-2.67-.5a5.53 5.53 0 0 1-3.17-3.54 8.33 8.33 0 0 1-.42-2.67Zm3.52-.26v.26c0 .55.04 1.07.14 1.55s.25.9.47 1.27c.22.36.5.64.85.84.35.2.78.3 1.28.3s.91-.1 1.26-.3c.35-.2.63-.48.84-.84.21-.37.37-.79.47-1.27.1-.48.15-1 .15-1.55v-.26a6.9 6.9 0 0 0-.15-1.51 4 4 0 0 0-.48-1.27c-.21-.37-.5-.67-.84-.88a2.4 2.4 0 0 0-1.27-.32c-.5 0-.92.11-1.27.32-.34.21-.62.5-.84.88-.22.37-.37.79-.47 1.27-.1.47-.14.98-.14 1.51Z" fill="#000"/><path d="M83.3 6.02a2 2 0 1 1-4 0 2 2 0 0 1 4 0Z" fill="#fff"/></svg>