<svg width="38" height="29" fill="none" xmlns="http://www.w3.org/2000/svg"><path d="M37.22 11.17c-.86-.6-2.82-.83-4.35-.53-.18-1.51-1-2.84-2.43-4.01l-.82-.6-.57.86a7.29 7.29 0 0 0-.96 4.24c.03.53.21 1.48.75 2.31-.5.3-1.54.68-2.89.68H.17l-.07.3c-.25 1.52-.25 6.25 2.67 9.88 2.22 2.76 5.5 4.16 9.8 4.16 9.35 0 16.27-4.58 19.51-12.86 1.29.03 4.03 0 5.42-2.84l.36-.8.14-.3-.78-.49ZM20.78.5h-3.92v3.78h3.92V.5Zm0 4.54h-3.92v3.78h3.92V5.04Zm-4.64 0h-3.92v3.78h3.92V5.04Zm-4.63 0H7.59v3.78h3.92V5.04ZM6.87 9.58H2.95v3.78h3.92V9.58Zm4.64 0H7.59v3.78h3.92V9.58Zm4.63 0h-3.92v3.78h3.92V9.58Zm4.64 0h-3.92v3.78h3.92V9.58Zm4.63 0H21.5v3.78h3.92V9.58Z" fill="#2396ED"/></svg>