<svg width="28" height="31" fill="none" xmlns="http://www.w3.org/2000/svg"><path d="M.22 23.24c.15.25.36.44.61.58l12.36 6.94c.51.3 1.14.3 1.64 0l12.35-6.94c.52-.28.82-.81.82-1.39V8.55c0-.58-.3-1.1-.82-1.39L14.83.22c-.52-.3-1.14-.3-1.64 0L.83 7.16C.3 7.44 0 7.97 0 8.56v13.89c0 .28.06.54.22.8Z" fill="#009639"/><path d="M10.04 20.79a1.5 1.5 0 0 1-.46 1.1 1.59 1.59 0 0 1-1.12.45 1.62 1.62 0 0 1-1.13-.45 1.54 1.54 0 0 1-.46-1.1V10.18c0-.83.75-1.5 1.8-1.5.75 0 1.63.3 2.16.94l.48.56 6.64 7.73v-7.7a1.5 1.5 0 0 1 .47-1.1 1.58 1.58 0 0 1 1.12-.45 1.62 1.62 0 0 1 1.13.45 1.54 1.54 0 0 1 .46 1.1v10.61c0 .83-.75 1.5-1.8 1.5-.75 0-1.63-.3-2.16-.94l-7.13-8.28v7.69Z" fill="#fff"/></svg>