<svg width="32" height="32" fill="none" xmlns="http://www.w3.org/2000/svg"><path d="M16.7.2a1.5 1.5 0 0 0-1.5 0L2.8 7.4c-.5.3-.8.8-.8 1.3v14.5c0 .6.3 1 .8 1.4l12.4 7.2a1.5 1.5 0 0 0 1.5 0l12.5-7.2c.5-.3.7-.8.7-1.4V8.7c0-.5-.3-1-.7-1.3L16.7.2Z" fill="url(#a)"/><path d="M29.2 7.4 16.7.2a2 2 0 0 0-.4-.1l-14 24.1.4.4 12.5 7.2c.4.2.8.3 1.2.1L29.6 7.7a1 1 0 0 0-.4-.3Z" fill="url(#b)"/><path d="M29.2 24.6c.4-.3.6-.6.8-1L16.3 0c-.4 0-.8 0-1.1.2L2.8 7.4 16.2 32c.2 0 .4 0 .5-.2l12.5-7.2Z" fill="url(#c)"/><defs><linearGradient id="a" x1="21.1" y1="5.6" x2="9.7" y2="28.7" gradientUnits="userSpaceOnUse"><stop stop-color="#3F873F"/><stop offset=".3" stop-color="#3F8B3D"/><stop offset=".6" stop-color="#3E9638"/><stop offset=".9" stop-color="#3DA92E"/><stop offset="1" stop-color="#3DAE2B"/></linearGradient><linearGradient id="b" x1="14.1" y1="17.7" x2="45.8" y2="-5.6" gradientUnits="userSpaceOnUse"><stop offset=".1" stop-color="#3F873F"/><stop offset=".4" stop-color="#52A044"/><stop offset=".7" stop-color="#64B749"/><stop offset=".9" stop-color="#6ABF4B"/></linearGradient><linearGradient id="c" x1="1.6" y1="16" x2="30.4" y2="16" gradientUnits="userSpaceOnUse"><stop offset=".1" stop-color="#6ABF4B"/><stop offset=".3" stop-color="#64B749"/><stop offset=".6" stop-color="#52A044"/><stop offset=".9" stop-color="#3F873F"/></linearGradient></defs></svg>