<svg width="30" height="32" fill="none" xmlns="http://www.w3.org/2000/svg"><g clip-path="url(#a)"><path fill-rule="evenodd" clip-rule="evenodd" d="M29.81 4.4 4.3 23.13C1.17 17.65.08 11.04 0 7.07V4.64c0-.36.4-.56.6-.62L13.83.18a4.7 4.7 0 0 1 1.1-.18h.02c.15 0 .58.04 1.1.18l13.24 3.84c.14.04.4.17.52.37Z" fill="url(#b)"/><path fill-rule="evenodd" clip-rule="evenodd" d="M4.3 23.17 29.8 4.43c.04.07.07.15.07.24V7.1c-.14 6.72-3.16 21.06-14.15 24.6a2.6 2.6 0 0 1-.74.17h-.1a2.6 2.6 0 0 1-.74-.18c-4.5-1.44-7.67-4.71-9.85-8.52Z" fill="url(#c)"/><path d="M15.96.18a4.7 4.7 0 0 0-1.1-.18l-.04 31.9h.09c.22 0 .58-.11.73-.17 11-3.54 14.03-17.9 14.16-24.65V4.65c0-.36-.4-.56-.6-.62C25 2.8 16.49.32 15.97.18Z" fill="url(#d)" fill-opacity=".21"/><path d="M14.99 22.3a6.7 6.7 0 0 0 6.83-6.55 6.7 6.7 0 0 0-6.83-6.55 6.7 6.7 0 0 0-6.83 6.55 6.7 6.7 0 0 0 6.83 6.55Z" fill="#E3E2FA"/><path fill-rule="evenodd" clip-rule="evenodd" d="M13.75 17.17a4.32 4.32 0 0 1-2.48-.7 2.92 2.92 0 0 1-1.05-2.44c0-1.38 1.28-2.83 3.07-2.79 1.7.04 2.84.97 3.07 2.43.12.77 0 1.14-.1 1.42l-.04.13c-.04.15-.1.47 0 .58l2.62 2.43c.07.09.23.31.23.49v.84c0 .13-.04.18-.19.18h-1.83a.38.38 0 0 1-.32-.4c0-.3-.04-.35-.1-.44a1.58 1.58 0 0 1-.04-.05c-.1-.13-.27-.13-.46-.13-.18 0-.32-.05-.41-.13-.1-.1-.1-.23-.05-.4.05-.18 0-.36-.09-.4l-.05-.03c-.1-.05-.26-.14-.45-.1-.23.04-.55 0-.74-.18-.18-.18-.4-.32-.6-.31ZM12.5 13.8c.38 0 .69-.3.69-.67 0-.36-.3-.66-.69-.66-.38 0-.69.3-.69.66 0 .37.31.67.7.67Z" fill="url(#e)"/></g><defs><linearGradient id="b" x1="2.8" y1="13.32" x2="13.53" y2="1.7" gradientUnits="userSpaceOnUse"><stop stop-color="#45FFC8"/><stop offset="1" stop-color="#1DBBF1"/></linearGradient><linearGradient id="c" x1="10.54" y1="19.82" x2="24.19" y2="26.71" gradientUnits="userSpaceOnUse"><stop stop-color="#D14AE8"/><stop offset=".55" stop-color="#B628E3"/><stop offset="1" stop-color="#8315FD"/></linearGradient><linearGradient id="d" x1="22.27" y1="3.01" x2="22.27" y2="25.18" gradientUnits="userSpaceOnUse"><stop stop-color="#20ABF5"/><stop offset=".4" stop-color="#2A8CC3"/><stop offset="1" stop-color="#A104DC"/></linearGradient><linearGradient id="e" x1="12.88" y1="13.72" x2="18.27" y2="19.35" gradientUnits="userSpaceOnUse"><stop stop-color="#FE5B01"/><stop offset="1" stop-color="#FFB200"/></linearGradient><clipPath id="a"><path fill="#fff" d="M0 0h30v32H0z"/></clipPath></defs></svg>