<svg width="32" height="32" fill="none" xmlns="http://www.w3.org/2000/svg"><path d="M24.5 0h-17A7.5 7.5 0 0 0 0 7.5v17A7.5 7.5 0 0 0 7.5 32h17a7.5 7.5 0 0 0 7.5-7.5v-17A7.5 7.5 0 0 0 24.5 0Z" fill="#023430"/><path d="M21.4 13.45C20.08 7.64 17.33 6.09 16.63 5c-.28-.48-.54-.98-.76-1.5-.04.52-.1.84-.55 1.23-.88.79-4.62 3.84-4.93 10.44-.3 6.15 4.52 9.95 5.16 10.34.49.24 1.09 0 1.38-.21 2.32-1.6 5.5-5.85 4.47-11.85" fill="#10AA50"/><path d="M16.07 22.23c-.12 1.53-.21 2.41-.52 3.28 0 0 .2 1.45.35 2.99h.5c.12-1.08.3-2.16.55-3.22-.65-.32-.86-1.7-.88-3.05Z" fill="#B8C4C2"/><path d="M16.95 25.28c-.66-.3-.85-1.72-.88-3.05.16-2.18.2-4.37.14-6.56-.03-1.15.02-10.65-.28-12.04.2.47.44.93.7 1.37.7 1.1 3.45 2.64 4.77 8.45 1.02 6-2.13 10.23-4.45 11.83Z" fill="#12924F"/></svg>