

<svg width="31" height="32" fill="none" xmlns="http://www.w3.org/2000/svg"><path d="M5.49023 11.8828H29.6291v17.842H5.49023v-17.842Z" fill="#fff"/><path d="M.363281 15.9781v15.1368H30.6367V.841431H.363281V15.9781ZM24.7588 14.7672c.7251.1683 1.3841.5475 1.8939 1.0899.2807.2922.5246.6175.7266.9687 0 .0388-1.3078.9227-2.1046 1.4168-.0291.0194-.1453-.1066-.2737-.2979-.1454-.251-.3521-.461-.6007-.6105-.2486-.1495-.531-.2336-.8209-.2444-.9179-.063-1.5089.419-1.504 1.2109-.0074.1972.0378.3928.1308.5667.201.419.5764.6685 1.7534 1.1771 2.1676.9324 3.0952 1.5476 3.6716 2.4219.6442.9687.7871 2.5332.3511 3.6909-.4843 1.2594-1.6711 2.1143-3.3494 2.3976-.7666.0879-1.5411.0798-2.3056-.0242-1.1718-.1931-2.2512-.7557-3.0807-1.6057-.2785-.3076-.821-1.1092-.7871-1.1673.0883-.0659.1814-.125.2785-.1768l1.1214-.62.8694-.5038.1817.2689c.3066.4384.6967.812 1.1479 1.0995.9688.5086 2.2911.4384 2.945-.1502.2196-.2156.3566-.5014.3871-.8077.0305-.3062-.0473-.6134-.22-.8682-.2421-.3366-.7265-.62-2.0803-1.2109-1.5622-.6733-2.2354-1.0899-2.8506-1.7535-.3839-.438-.6674-.9546-.8307-1.5136-.1217-.6388-.1397-1.293-.0533-1.9375.3221-1.5089 1.4531-2.5624 3.1049-2.8748.7649-.0945 1.5397-.0733 2.2983.063v-.0049Zm-7.1058 1.2691v1.24h-3.9307v11.1963h-2.7875V17.2739H6.99437v-1.211c-.01235-.4176-.00265-.8355.02907-1.2521.01937-.0218 2.42187-.0218 5.32816-.0218h5.2869l.0145 1.2473Z" fill="#007ACC"/></svg>