<svg width="32" height="32" fill="none" xmlns="http://www.w3.org/2000/svg"><path d="m5.8 24.6.17-.24 8.02-15.21.02-.16-3.54-6.64a.66.66 0 0 0-1.23.2L5.8 24.6Z" fill="#FFC24A"/><path d="m5.9 24.42.13-.25 7.93-15.06-3.52-6.66a.6.6 0 0 0-1.13.2L5.9 24.42Z" fill="#FFA712"/><path d="m16.58 14.01 2.64-2.7-2.64-5.02a.68.68 0 0 0-1.2 0l-1.4 2.68v.23l2.6 4.81Z" fill="#F4BD62"/><path d="m16.54 13.9 2.56-2.62-2.56-4.88a.59.59 0 0 0-1.08-.05l-1.41 2.73-.04.14 2.53 4.68Z" fill="#FFA50E"/><path d="m5.8 24.6.08-.08.28-.11 10.26-10.22.13-.36-2.56-4.87L5.8 24.6Z" fill="#F6820C"/><path d="m16.91 29.76 9.29-5.18-2.65-16.33a.63.63 0 0 0-1.08-.35L5.8 24.6l9.23 5.16a1.93 1.93 0 0 0 1.88 0" fill="#FDE068"/><path d="m26.11 24.53-2.63-16.2a.56.56 0 0 0-.96-.36L5.9 24.57l9.13 5.1a1.91 1.91 0 0 0 1.86 0l9.22-5.14Z" fill="#FCCA3F"/><path d="M16.91 29.6a1.93 1.93 0 0 1-1.88 0l-9.15-5.08-.08.08 9.23 5.15a1.93 1.93 0 0 0 1.88 0l9.29-5.17-.02-.14-9.27 5.16Z" fill="#EEAB37"/></svg>