<svg width="45" height="29" fill="none" xmlns="http://www.w3.org/2000/svg"><path d="m13.39 19.14 1.36 4.2c.31.94.44 1.6.39 1.99.75-1.9 1.27-3.96 1.57-6.2h1.64c-.7 3.64-1.64 6.29-2.8 7.93-.9 1.27-1.89 1.91-2.96 1.91-.29 0-.64-.08-1.06-.24v-.88c.2.03.44.04.72.04.5 0 .9-.13 1.21-.4.37-.31.56-.67.56-1.07 0-.27-.15-.83-.43-1.67l-1.9-5.61h1.7ZM2.92 16.56l2.5 7.22h.02l2.52-7.22h2.06c.45 3.58.72 6.86.8 9.83H9.08a86.9 86.9 0 0 0-.5-7.84h-.02L5.92 26.4H4.59l-2.62-7.84h-.02c-.2 2.35-.32 4.97-.37 7.84H0c.1-3.5.36-6.77.77-9.83h2.15Z" fill="#00758F"/><path d="M30.98 16.41c2.7 0 4.04 1.63 4.04 4.88 0 1.77-.4 3.1-1.21 4-.15.17-.3.32-.48.45l1.9.89-.67 1.1-2.48-1.37c-.42.12-.87.18-1.36.18-1.32 0-2.31-.37-2.97-1.1-.71-.8-1.07-2.07-1.07-3.8 0-1.76.4-3.09 1.21-3.99a3.93 3.93 0 0 1 3.1-1.24Zm-8.25.02c.96 0 1.84.24 2.63.73l-.4.84a5.33 5.33 0 0 0-2-.4c-.53 0-.94.11-1.23.36a1.2 1.2 0 0 0-.46.93c0 .58.44 1.09 1.25 1.51l.79.42.06.03.03.02.06.03.03.02.06.03 1.2.64c.8.54 1.2 1.12 1.2 2.08 0 .83-.32 1.51-.96 2.05-.65.53-1.51.8-2.6.8-1.01 0-2-.3-2.95-.92l.45-.84c.82.39 1.56.58 2.23.58.62 0 1.1-.13 1.46-.4.36-.25.57-.62.57-1.08 0-.59-.43-1.09-1.22-1.5l-.74-.4-.06-.03-.33-.18-.06-.03-1-.53c-.78-.55-1.18-1.13-1.18-2.1 0-.8.3-1.44.89-1.93.59-.49 1.35-.73 2.28-.73Zm15.46.13v8.62h3.27v1.21h-4.93v-9.83h1.66Zm5.1 8.63v.2h-.37v1h-.27v-1h-.38v-.2h1.01Zm.66 0 .34.82.32-.82H45v1.2h-.26v-.92l-.36.92h-.19l-.36-.92h-.01v.92h-.25v-1.2h.38ZM30.8 17.62c-1.59 0-2.38 1.24-2.38 3.72 0 1.41.21 2.44.63 3.08.39.6 1 .9 1.83.9 1.59 0 2.38-1.25 2.38-3.75 0-1.4-.21-2.42-.63-3.06-.39-.6-1-.89-1.83-.89" fill="#F29111"/><path d="M26.65.6c.53-1.21 2.37-.29 3.08.14.18.1.38.33.58.42.31 0 .63.03.94.04.59.13 1.14.24 1.6.5a12.36 12.36 0 0 1 4.85 4.43c.28.43.42.9.64 1.36.32.69.67 1.41 1.03 2.07.16.3.29.65.52.91.08.12.33.16.48.23.42.2.92.35 1.3.6.74.42 1.44.93 2.08 1.45.23.2.4.49.62.7v.11l-.6.17c-.44.1-.83.08-1.25.19-.26.07-.6.16-.87.19l.03.02c.16.44 1.04.8 1.44 1.06.49.33.94.74 1.3 1.2l.38.34c.09.12.11.28.2.38v.04a.61.61 0 0 1-.24-.16l-.03-.04a.99.99 0 0 0-.13-.1c-.28-.19-.55-.4-.83-.57-.47-.28-1.03-.45-1.51-.74a11.6 11.6 0 0 1-.8-.54c-.25-.17-.5-.49-.66-.73-.09-.13-.1-.28-.2-.38.02-.16.17-.2.33-.24l.03-.01.15-.04a6.08 6.08 0 0 1 2.44-.34c-.04-.23-.67-.53-.87-.67-.4-.28-.83-.56-1.25-.81-.23-.13-.62-.23-.87-.33-.34-.14-1.09-.27-1.28-.51-.31-.4-.54-.87-.76-1.34l-.07-.13-.06-.13c-.26-.57-.58-1.16-.85-1.74-.14-.29-.2-.54-.35-.81a10.78 10.78 0 0 0-3.9-4.07 8.22 8.22 0 0 0-1.81-.82c-.38-.1-.83-.04-1.23-.13h-.27c-.22-.06-.41-.28-.59-.4a6.5 6.5 0 0 0-1.24-.6c-.16-.07-.62-.23-.79-.1-.1.02-.15.06-.17.15-.1.15-.01.36.05.5.19.37.45.6.69.92.21.28.47.6.63.91.32.67.47 1.4.77 2.07.11.25.3.53.45.76.14.18.4.3.47.53.15.24-.23 1.03-.32 1.28-.32.97-.26 2.32.12 3.17l.02.04.02.05c.13.3.28.64.65.73.02-.03 0-.01.05-.03.08-.65.1-1.28.35-1.79.13-.32.41-.55.6-.8.12.06.12.28.2.42a15.09 15.09 0 0 0 1.94 3.3c.18.24.43.5.65.72.1.08.22.13.3.23h.02v.04c-.38-.13-.62-.5-.92-.71a6.97 6.97 0 0 1-1.63-1.6c-.16-.33-.34-.65-.51-.98v-.03c-.08.1-.05.2-.09.34-.16.6-.04 1.27-.6 1.48-.64.25-1.12-.4-1.32-.7a4.99 4.99 0 0 1-.36-4c.1-.29.11-.64.29-.88-.04-.22-.21-.27-.32-.4a5.56 5.56 0 0 1-.46-.74c-.26-.49-.45-1.07-.65-1.6-.09-.2-.11-.42-.2-.62-.15-.31-.43-.62-.64-.9-.29-.39-1.13-1.15-.79-1.92Zm4.11 2.34c.03.03.07.06.12.08l.05.04c.06.04.13.09.17.15.06.08.07.17.15.25 0 .29-.09.48-.26.6 0 0-.02 0-.03.02l-.29-.57c-.12-.17-.3-.3-.4-.49h-.02V3c.15-.04.3-.06.51-.06Z" fill="#00758F"/></svg>